<?xml version="1.0" encoding="UTF-8" standalone="no"?>
<svg width="46px" height="26px" viewBox="0 0 46 26" version="1.1" xmlns="http://www.w3.org/2000/svg" xmlns:xlink="http://www.w3.org/1999/xlink">
    <!-- Generator: Sketch 3.6.1 (26313) - http://www.bohemiancoding.com/sketch -->
    <title>nhtsa</title>
    <desc>Created with Sketch.</desc>
    <defs>
        <path id="path-1" d="M0.0254262295,0.244655738 L46.3007402,0.244655738 L46.3007402,25.9744262 L0.0254262295,25.9744262"></path>
    </defs>
    <g id="nhtsa-recall-messaging-focus" stroke="none" stroke-width="1" fill="none" fill-rule="evenodd">
        <g id="nhtsa-alt-messaging-on-search-results-card-00-annotations" transform="translate(-897.000000, -558.000000)">
            <g id="nhtsa" transform="translate(897.000000, 558.000000)">
                <path d="M5.47341967,19.1568852 L10.1412516,19.1568852 L10.1412516,19.776623 L5.47341967,19.776623 L5.47341967,19.1568852 Z M11.5634254,19.1568852 L16.2312574,19.1568852 L16.2312574,19.776623 L11.5634254,19.776623 L11.5634254,19.1568852 Z M17.742423,19.1568852 L22.4094074,19.1568852 L22.4094074,19.776623 L17.742423,19.776623 L17.742423,19.1568852 Z M23.9218443,19.1568852 L28.5892525,19.1568852 L28.5892525,19.776623 L23.9218443,19.776623 L23.9218443,19.1568852 Z M30.0122738,19.1568852 L34.679682,19.1568852 L34.679682,19.776623 L30.0122738,19.776623 L30.0122738,19.1568852 Z M36.19,19.1568852 L40.857832,19.1568852 L40.857832,19.776623 L36.19,19.776623 L36.19,19.1568852 Z M45.7485672,19.7698033 C45.7400918,19.7698033 45.7422107,20.9747541 45.7422107,20.9747541 L0.704730328,20.9747541 L0.704730328,19.776623 L3.96394918,19.776623 L3.96394918,19.1543279 L0.711934426,19.1543279 L0.704730328,17.9186885 L45.7422107,17.9186885 L45.7367016,19.1615738 L42.3261967,19.1543279 L42.3261967,19.7698033 L45.7485672,19.7698033 L45.7485672,19.7698033 Z" id="Fill-1" fill="#0B0B0A"></path>
                <path d="M40.176409,9.76108197 L40.1492877,9.76108197 L39.4992238,11.679541 L40.811641,11.6710164 L40.176409,9.76108197 L40.176409,9.76108197 Z M38.5334508,14.5672459 L37.5846287,16.9460328 L34.7335008,16.9460328 L38.7088918,6.54859016 L41.6435025,6.54859016 L45.536682,16.9460328 L42.6715697,16.9460328 L41.8024164,14.574918 L38.5334508,14.5672459 L38.5334508,14.5672459 Z" id="Fill-2" fill="#194C8E"></path>
                <path d="M0.605144262,6.59163934 L3.29269672,6.59163934 L8.21436721,12.9497049 L8.24106475,12.9497049 L8.24106475,6.59163934 L10.929041,6.59163934 L10.929041,16.9886557 L8.24106475,16.9886557 L8.05291066,16.7452787 L3.31981803,10.6178033 L3.29269672,10.6178033 L3.29269672,16.9886557 L0.605144262,16.9886557 L0.605144262,6.59163934" id="Fill-3" fill="#194C8E"></path>
                <path d="M33.9029107,9.20229508 C33.4198123,8.79737705 32.80365,8.52885246 32.1590951,8.52885246 C31.675573,8.52885246 31.0322893,8.81101639 31.0322893,9.37790164 C31.0322893,9.97121311 31.7433762,10.2005246 32.1993533,10.348 L32.8697582,10.5508852 C34.2779475,10.9694426 35.3640713,11.6842295 35.3640713,13.3294754 C35.3640713,14.340918 35.1237934,15.3792131 34.317782,16.0675738 C33.52745,16.7418689 32.4671762,17.0261639 31.4488557,17.0261639 C30.1741541,17.0261639 28.9265738,16.5948197 27.8942689,15.865541 L29.0214984,13.7348197 C29.6787664,14.3144918 30.4559615,14.7863279 31.3547787,14.7863279 C31.9717885,14.7863279 32.6286328,14.476459 32.6286328,13.7612459 C32.6286328,13.0191803 31.5963279,12.7621639 31.0322893,12.6010492 C29.3829746,12.1292131 28.2972746,11.6970164 28.2972746,9.72783607 C28.2972746,7.66488525 29.7584352,6.31586885 31.7836344,6.31586885 C32.80365,6.31586885 34.049959,6.63980328 34.9483525,7.15213115 L33.9029107,9.20229508" id="Fill-4" fill="#194C8E"></path>
                <path d="M18.0772016,10.6045902 L18.0772016,6.59163934 L20.7647541,6.59163934 L20.7647541,16.9895082 L18.0772016,16.9895082 L18.0772016,13.1116721 L14.197159,13.1116721 L14.197159,16.9895082 L11.5100303,16.9895082 L11.5100303,6.59163934 L14.197159,6.59163934 L14.197159,10.6045902 L18.0772016,10.6045902" id="Fill-5" fill="#194C8E"></path>
                <path d="M25.9656893,16.9886557 L23.2789844,16.9886557 L23.2789844,8.88006557 L21.0575795,8.88006557 L21.0575795,6.59163934 L28.1866705,6.59163934 L28.1866705,8.88006557 L25.9656893,8.88006557 L25.9656893,16.9886557" id="Fill-6" fill="#194C8E"></path>
                <path d="M19.7002426,23.0291803 C19.7426197,23.0057377 19.7379582,22.9111148 19.6917672,22.8915082 C19.5387861,22.9021639 19.3485131,22.9055738 19.190023,22.9055738 C19.0323803,22.9055738 18.861177,22.9021639 18.7404025,22.8915082 C18.6937877,22.9111148 18.6891262,23.000623 18.726418,23.0291803 L18.8145623,23.052623 C18.9213525,23.0760656 18.9768664,23.0952459 19.0188197,23.1971148 C19.0277189,23.2627541 19.0277189,23.3087869 18.9726287,23.4439016 L18.8429549,23.7516393 C18.7963402,23.8594754 18.7221803,24.0320984 18.6759893,24.1245902 C18.6382738,24.0359344 18.5310598,23.7934098 18.4429156,23.5696393 L18.3229885,23.2674426 C18.2899344,23.1873115 18.2725598,23.1459672 18.2725598,23.1178361 C18.2725598,23.0850164 18.3132418,23.0709508 18.3827402,23.052623 L18.4619852,23.0291803 C18.4946156,23.0057377 18.4903779,22.9111148 18.4526623,22.8915082 C18.32765,22.9021639 18.1691598,22.9055738 17.9937189,22.9055738 C17.8119213,22.9055738 17.6682631,22.9021639 17.5017213,22.8915082 C17.4648533,22.9111148 17.4551066,22.9903934 17.4877369,23.0291803 L17.5665582,23.0475082 C17.6966557,23.0799016 17.7335238,23.1178361 17.7797148,23.2154426 C17.9746492,23.6446557 18.1229689,24.0124918 18.2153508,24.2175082 C18.3132418,24.4319016 18.4102852,24.679541 18.4480008,24.7818361 C18.4713082,24.8010164 18.4988533,24.8099672 18.5310598,24.8099672 C18.5645377,24.8099672 18.591659,24.8010164 18.6111525,24.7818361 C18.6984492,24.5205574 19.0188197,23.8125902 19.1582402,23.5138033 C19.2976607,23.8219672 19.5430238,24.3722295 19.7104131,24.7818361 C19.7337205,24.8010164 19.7608418,24.8099672 19.7934721,24.8099672 C19.8256787,24.8099672 19.8540713,24.8010164 19.873141,24.7818361 C19.965523,24.5303607 20.0862975,24.2273115 20.1880025,23.9894754 L20.4715049,23.3416066 C20.5685484,23.1135738 20.6109254,23.0850164 20.7308525,23.052623 L20.8189967,23.0291803 C20.851627,22.9903934 20.8465418,22.9111148 20.8054361,22.8915082 C20.6571164,22.9021639 20.5448172,22.9055738 20.438027,22.9055738 C20.3320844,22.9055738 20.2159713,22.9021639 20.0579049,22.8915082 C20.0210369,22.9111148 20.0112902,23.000623 20.048582,23.0291803 L20.2066484,23.0615738 C20.2621623,23.0760656 20.2947926,23.0952459 20.2947926,23.1225246 C20.2947926,23.154918 20.2808082,23.2111803 20.2439402,23.3185902 C20.1786795,23.4997377 19.9977295,23.9660328 19.9197557,24.1245902 C19.8311877,23.9246885 19.6129459,23.4485902 19.5290393,23.2209836 C19.505732,23.1596066 19.5014943,23.1319016 19.5014943,23.1080328 C19.5014943,23.0799016 19.5387861,23.0666885 19.6171836,23.0475082 L19.7002426,23.0291803" id="Fill-7" fill="#D82738"></path>
                <path d="M22.8738598,23.0291803 C22.9158131,23.0057377 22.9107279,22.9111148 22.8645369,22.8915082 C22.7115557,22.9021639 22.5217066,22.9055738 22.3627926,22.9055738 C22.20515,22.9055738 22.0339467,22.9021639 21.9131721,22.8915082 C21.8669811,22.9111148 21.8623197,23.000623 21.8996115,23.0291803 L21.9877557,23.052623 C22.0945459,23.0760656 22.1504836,23.0952459 22.1915893,23.1971148 C22.2009123,23.2627541 22.2009123,23.3087869 22.1453984,23.4439016 L22.0153008,23.7516393 C21.9691098,23.8594754 21.8945262,24.0320984 21.8483352,24.1245902 C21.8110434,24.0359344 21.7042533,23.7934098 21.6165328,23.5696393 L21.496182,23.2674426 C21.4631279,23.1873115 21.4449057,23.1459672 21.4449057,23.1178361 C21.4449057,23.0850164 21.4860115,23.0709508 21.5559336,23.052623 L21.6347549,23.0291803 C21.6673852,23.0057377 21.6627238,22.9111148 21.6250082,22.8915082 C21.5004197,22.9021639 21.3423533,22.9055738 21.1664885,22.9055738 C20.9851148,22.9055738 20.8414566,22.9021639 20.674491,22.8915082 C20.6371992,22.9111148 20.6283,22.9903934 20.6609303,23.0291803 L20.7393279,23.0475082 C20.8690016,23.0799016 20.9058697,23.1178361 20.9524844,23.2154426 C21.1474189,23.6446557 21.2957385,24.0124918 21.388968,24.2175082 C21.4860115,24.4319016 21.5834787,24.679541 21.6207705,24.7818361 C21.6445016,24.8010164 21.6720467,24.8099672 21.7042533,24.8099672 C21.7373074,24.8099672 21.7644287,24.8010164 21.7834984,24.7818361 C21.8707951,24.5205574 22.1915893,23.8125902 22.3314336,23.5138033 C22.4704303,23.8219672 22.7162172,24.3722295 22.882759,24.7818361 C22.9069139,24.8010164 22.9340352,24.8099672 22.9662418,24.8099672 C22.9992959,24.8099672 23.026841,24.8010164 23.0459107,24.7818361 C23.1378689,24.5303607 23.259491,24.2273115 23.3607721,23.9894754 L23.6442746,23.3416066 C23.741318,23.1135738 23.7832713,23.0850164 23.9044697,23.052623 L23.9913426,23.0291803 C24.0248205,22.9903934 24.0193115,22.9111148 23.9786295,22.8915082 C23.8290385,22.9021639 23.7184344,22.9055738 23.6116443,22.9055738 C23.5048541,22.9055738 23.388741,22.9021639 23.2306746,22.8915082 C23.1942303,22.9111148 23.1840598,23.000623 23.2213516,23.0291803 L23.3798418,23.0615738 C23.4353557,23.0760656 23.4671385,23.0952459 23.4671385,23.1225246 C23.4671385,23.154918 23.4544254,23.2111803 23.4167098,23.3185902 C23.3514492,23.4997377 23.170923,23.9660328 23.0916779,24.1245902 C23.0035336,23.9246885 22.7857156,23.4485902 22.7013852,23.2209836 C22.6789254,23.1596066 22.6742639,23.1319016 22.6742639,23.1080328 C22.6742639,23.0799016 22.7115557,23.0666885 22.7899533,23.0475082 L22.8738598,23.0291803" id="Fill-8" fill="#D82738"></path>
                <path d="M26.0470533,23.0291803 C26.088159,23.0057377 26.0843451,22.9111148 26.036459,22.8915082 C25.8839016,22.9021639 25.6944762,22.9055738 25.5364098,22.9055738 C25.379191,22.9055738 25.2058689,22.9021639 25.0859418,22.8915082 C25.0389033,22.9111148 25.0350893,23.000623 25.0728049,23.0291803 L25.1601016,23.052623 C25.2673156,23.0760656 25.3224057,23.0952459 25.3647828,23.1971148 C25.3732582,23.2627541 25.3732582,23.3087869 25.3185918,23.4439016 L25.1880705,23.7516393 C25.1418795,23.8594754 25.0672959,24.0320984 25.0211049,24.1245902 C24.9842369,24.0359344 24.8778705,23.7934098 24.7893025,23.5696393 L24.6685279,23.2674426 C24.6363213,23.1873115 24.6176754,23.1459672 24.6176754,23.1178361 C24.6176754,23.0850164 24.6596287,23.0709508 24.729127,23.052623 L24.8075246,23.0291803 C24.8405787,23.0057377 24.8354934,22.9111148 24.7986254,22.8915082 C24.6736131,22.9021639 24.5155467,22.9055738 24.3392582,22.9055738 C24.158732,22.9055738 24.0150738,22.9021639 23.8476844,22.8915082 C23.8099689,22.9111148 23.8010697,22.9903934 23.8332762,23.0291803 L23.9125213,23.0475082 C24.0426189,23.0799016 24.0790631,23.1178361 24.1256779,23.2154426 C24.3201885,23.6446557 24.468932,24.0124918 24.5613139,24.2175082 C24.6596287,24.4319016 24.7566721,24.679541 24.7931164,24.7818361 C24.8172713,24.8010164 24.8448164,24.8099672 24.8778705,24.8099672 C24.9096533,24.8099672 24.9380459,24.8010164 24.956268,24.7818361 C25.0448361,24.5205574 25.3647828,23.8125902 25.5042033,23.5138033 C25.6436238,23.8219672 25.8894107,24.3722295 26.0559525,24.7818361 C26.0792598,24.8010164 26.1068049,24.8099672 26.139859,24.8099672 C26.1720656,24.8099672 26.1991869,24.8010164 26.2182566,24.7818361 C26.3110623,24.5303607 26.4318369,24.2273115 26.5335418,23.9894754 L26.8170443,23.3416066 C26.9149352,23.1135738 26.9556172,23.0850164 27.0768156,23.052623 L27.1653836,23.0291803 C27.1971664,22.9903934 27.1929287,22.9111148 27.1509754,22.8915082 C27.002232,22.9021639 26.8912041,22.9055738 26.7844139,22.9055738 C26.6776238,22.9055738 26.5610869,22.9021639 26.4047156,22.8915082 C26.3665762,22.9111148 26.3572533,23.000623 26.3945451,23.0291803 L26.5521877,23.0615738 C26.6085492,23.0760656 26.6407557,23.0952459 26.6407557,23.1225246 C26.6407557,23.154918 26.6267713,23.2111803 26.5890557,23.3185902 C26.5246426,23.4997377 26.3436926,23.9660328 26.2648713,24.1245902 C26.176727,23.9246885 25.9584852,23.4485902 25.8750025,23.2209836 C25.8525426,23.1596066 25.8470336,23.1319016 25.8470336,23.1080328 C25.8470336,23.0799016 25.8839016,23.0666885 25.9635705,23.0475082 L26.0470533,23.0291803" id="Fill-9" fill="#D82738"></path>
                <path d="M27.2937861,24.8099672 C27.4654131,24.8099672 27.5959344,24.6748525 27.5959344,24.501377 C27.5959344,24.3283279 27.4654131,24.1940656 27.2937861,24.1940656 C27.1179213,24.1940656 26.9874,24.3283279 26.9874,24.501377 C26.9874,24.6748525 27.1179213,24.8099672 27.2937861,24.8099672" id="Fill-10" fill="#D82738"></path>
                <path d="M28.7774066,23.5636721 C28.7774066,23.3910492 28.782068,23.3488525 28.8426672,23.2653115 C28.8888582,23.1949836 29.0053951,23.1203934 29.149477,23.1203934 C29.426623,23.1203934 29.5198525,23.307082 29.5198525,23.544918 L29.5198525,24.1876721 C29.5198525,24.5324918 29.5012066,24.5836393 29.3439877,24.6113443 L29.2744893,24.6215738 C29.241859,24.6539672 29.2465205,24.7400656 29.2833885,24.7579672 C29.4461164,24.7490164 29.603759,24.7456066 29.7567402,24.7456066 C29.9279434,24.7456066 30.0864336,24.7490164 30.2809443,24.7579672 C30.3178123,24.7400656 30.3233213,24.6539672 30.2902672,24.6215738 L30.1839008,24.607082 C30.0258344,24.5836393 30.0071885,24.5324918 30.0071885,24.1876721 L30.0071885,23.4652131 C30.0071885,23.1012131 29.8309,22.8407869 29.4558631,22.8407869 C29.1672754,22.8407869 29.0371779,22.952459 28.8193598,23.073082 C28.791391,23.0692459 28.7774066,23.0602951 28.7774066,23.026623 C28.7774066,22.9899672 28.7774066,22.9008852 28.787577,22.8122295 C28.7774066,22.7939016 28.7591844,22.7755738 28.7269779,22.7755738 C28.5782344,22.8586885 28.3235484,22.9716393 28.1235287,23.026623 C28.104459,23.0504918 28.104459,23.1157049 28.1188672,23.134459 L28.1743811,23.1672787 C28.290918,23.2371803 28.290918,23.2917377 28.290918,23.5027213 L28.290918,24.1876721 C28.290918,24.5324918 28.2722721,24.5836393 28.1142057,24.607082 L28.012077,24.6215738 C27.9794467,24.6539672 27.984532,24.7400656 28.0209762,24.7579672 C28.2163344,24.7490164 28.3744008,24.7456066 28.521873,24.7456066 C28.6943475,24.7456066 28.8519902,24.7490164 29.014718,24.7579672 C29.0515861,24.7400656 29.0566713,24.6539672 29.0231934,24.6215738 L28.9545426,24.6113443 C28.7960525,24.5836393 28.7774066,24.5324918 28.7774066,24.1876721 L28.7774066,23.5636721" id="Fill-11" fill="#D82738"></path>
                <path d="M31.1992549,22.1217377 C31.1992549,21.9218361 31.2034926,21.632 31.2123918,21.4448852 C31.2034926,21.4214426 31.1759475,21.4031148 31.1479787,21.407377 C30.9577057,21.481541 30.720818,21.5808525 30.5394443,21.632 C30.5076615,21.6456393 30.512323,21.7198033 30.5394443,21.7389836 L30.6047049,21.7807541 C30.7064098,21.8412787 30.7119189,21.8745246 30.7119189,22.187377 L30.7119189,24.1868197 C30.7119189,24.5316393 30.693273,24.5840656 30.5352066,24.607082 L30.4335016,24.6207213 C30.4008713,24.6543934 30.4059566,24.7396393 30.4424008,24.7579672 C30.6373352,24.7494426 30.7949779,24.7447541 30.9441451,24.7447541 C31.1149246,24.7447541 31.272991,24.7494426 31.4357189,24.7579672 C31.4725869,24.7396393 31.4772484,24.6543934 31.4450418,24.6207213 L31.3746959,24.6117705 C31.217477,24.5840656 31.1992549,24.5316393 31.1992549,24.1868197 L31.1992549,23.5636721 C31.1992549,23.3812459 31.2034926,23.310918 31.2543451,23.2559344 C31.3102828,23.1949836 31.417073,23.1203934 31.5696303,23.1203934 C31.8442336,23.1203934 31.941277,23.307082 31.941277,23.5304262 L31.941277,24.1868197 C31.941277,24.5316393 31.9226311,24.5840656 31.764141,24.6117705 L31.6954902,24.6207213 C31.6628598,24.6543934 31.6670975,24.7396393 31.7043893,24.7579672 C31.8666934,24.7494426 32.0243361,24.7447541 32.177741,24.7447541 C32.3489443,24.7447541 32.5074344,24.7494426 32.7023689,24.7579672 C32.7489836,24.7396393 32.7532213,24.6543934 32.711268,24.6207213 L32.6044779,24.607082 C32.4464115,24.5840656 32.4281893,24.5316393 32.4281893,24.1868197 L32.4281893,23.492918 C32.4281893,23.097377 32.2332549,22.8399344 31.8340631,22.8399344 C31.6022607,22.8399344 31.4030885,22.9426557 31.2399369,23.0641311 C31.2081541,23.0641311 31.1992549,23.0411148 31.1992549,22.9857049 L31.1992549,22.1217377" id="Fill-12" fill="#D82738"></path>
                <path d="M34.1821754,23.1118689 C34.2190434,23.0875738 34.2372656,23.045377 34.2423508,22.9903934 C34.2423508,22.943082 34.2330279,22.9051475 34.205059,22.891082 L33.7456918,22.891082 C33.6579713,22.891082 33.6579713,22.8774426 33.6579713,22.8032787 L33.6579713,22.5223934 C33.6346639,22.4861639 33.5694033,22.4720984 33.52745,22.499377 C33.4626131,22.625541 33.3604844,22.724 33.2719164,22.7892131 C33.1702115,22.8642295 33.0638451,22.9247541 32.9049311,22.9848525 C32.8642492,23.0129836 32.8735721,23.0875738 32.9201869,23.1118689 L33.0820672,23.1118689 C33.1566508,23.1118689 33.1659738,23.1157049 33.1659738,23.279377 L33.1659738,24.2268852 C33.1659738,24.5529508 33.2447951,24.8099672 33.6855164,24.8099672 C33.9685951,24.8099672 34.1821754,24.6838033 34.2745574,24.5529508 C34.2838803,24.5018033 34.256759,24.4638689 34.214382,24.4600328 C34.1402221,24.5111803 34.0842844,24.5435738 33.9923262,24.5435738 C33.6948393,24.5435738 33.6524623,24.2822951 33.6524623,23.988623 L33.6524623,23.27 C33.6524623,23.1203934 33.6579713,23.1118689 33.7410303,23.1118689 L34.1821754,23.1118689" id="Fill-13" fill="#D82738"></path>
                <path d="M35.0208172,24.8099672 C35.3878025,24.8099672 35.7441934,24.6322295 35.7441934,24.2268852 C35.7441934,23.8581967 35.4797607,23.6996393 35.2293123,23.5773115 C35.0534475,23.4933443 34.9182648,23.3957377 34.9182648,23.2601967 C34.9182648,23.125082 35.0301402,23.0180984 35.1784598,23.0180984 C35.3589861,23.0180984 35.5081533,23.1949836 35.5768041,23.4098033 C35.6098582,23.4375082 35.6891033,23.4238689 35.7030877,23.3859344 C35.7030877,23.1762295 35.6793566,23.0313115 35.6335893,22.9337049 C35.5683287,22.896623 35.3916164,22.8399344 35.2013434,22.8399344 C34.8165598,22.8399344 34.5055123,23.0547541 34.5101738,23.4183279 C34.5101738,23.7179672 34.7601984,23.8905902 35.0025951,24.0069508 C35.1640516,24.0866557 35.3178803,24.1983279 35.3178803,24.371377 C35.3178803,24.5350492 35.2013434,24.6322295 35.0576852,24.6322295 C34.8110508,24.6322295 34.6398475,24.3854426 34.5567885,24.1245902 C34.524582,24.090918 34.4542361,24.0960328 34.4262672,24.1326885 C34.4182156,24.3338689 34.4449131,24.5712787 34.4915279,24.6603607 C34.6398475,24.772459 34.8301205,24.8099672 35.0208172,24.8099672" id="Fill-14" fill="#D82738"></path>
                <path d="M36.9972828,24.3287541 C36.9921975,24.4412787 36.9413451,24.5529508 36.7739557,24.5529508 C36.5972434,24.5529508 36.5141844,24.4037705 36.5141844,24.2822951 C36.5141844,24.0819672 36.6345352,24.0167541 36.7646328,23.9694426 C36.8485393,23.936623 36.9315984,23.9136066 36.9688902,23.9136066 C36.9921975,23.9136066 37.0066057,23.9425902 37.0066057,23.9937377 L36.9972828,24.3287541 L36.9972828,24.3287541 Z M37.4952131,23.4238689 C37.513859,23.0129836 37.2854467,22.8407869 36.9176139,22.8407869 C36.6815738,22.8407869 36.3472189,22.998918 36.2035607,23.134459 C36.0501557,23.279377 36.0230344,23.3774098 36.0230344,23.4328197 C36.0230344,23.4750164 36.0501557,23.5074098 36.1107549,23.5074098 C36.2120361,23.5074098 36.3425574,23.4664918 36.4073943,23.4238689 C36.4590943,23.3914754 36.4866393,23.3450164 36.4955385,23.2563607 C36.5141844,23.1203934 36.6116516,23.0504918 36.7417492,23.0504918 C36.9688902,23.0504918 37.0341508,23.2563607 37.0244041,23.4933443 L37.0197426,23.6148197 C37.0197426,23.6621311 37.0066057,23.7039016 36.9133762,23.7362951 C36.7417492,23.8023607 36.5650369,23.8671475 36.4027328,23.9229836 C36.0823623,24.0346557 36.0175254,24.1898033 36.0175254,24.3573115 C36.0175254,24.5908852 36.1755918,24.8103934 36.4904533,24.8103934 C36.6578426,24.8103934 36.7976869,24.7447541 36.8858311,24.688918 C36.9553295,24.6462951 36.9879598,24.6232787 37.0112672,24.6232787 C37.0341508,24.6232787 37.0536443,24.6462951 37.0862746,24.6791148 C37.1744189,24.7775738 37.3040926,24.8103934 37.4206295,24.8103934 C37.5651352,24.8103934 37.7927,24.735377 37.885082,24.6045246 C37.8990664,24.5627541 37.8664361,24.5107541 37.8439762,24.5107541 C37.829568,24.5107541 37.7638836,24.5627541 37.6854861,24.5627541 C37.5180967,24.5627541 37.4485984,24.423377 37.4630066,24.1518689 L37.4952131,23.4238689 L37.4952131,23.4238689 Z" id="Fill-15" fill="#D82738"></path>
                <g id="Group-19">
                    <mask id="mask-2" fill="white">
                        <use xlink:href="#path-1"></use>
                    </mask>
                    <g id="Clip-17"></g>
                    <path d="M38.4122525,24.8099672 C38.5834557,24.8099672 38.7131295,24.6748525 38.7131295,24.501377 C38.7131295,24.3283279 38.5834557,24.1940656 38.4122525,24.1940656 C38.2351164,24.1940656 38.1058664,24.3283279 38.1058664,24.501377 C38.1058664,24.6748525 38.2351164,24.8099672 38.4122525,24.8099672" id="Fill-16" fill="#D82738" mask="url(#mask-2)"></path>
                    <path d="M39.7144992,23.4933443 C39.7144992,23.1719672 39.8581574,23.0176721 40.0204615,23.0176721 C40.2302279,23.0176721 40.3637156,23.2469836 40.3637156,23.5636721 C40.3637156,23.8905902 40.2331943,24.0440328 40.0577533,24.0440328 C39.881041,24.0440328 39.7144992,23.8535082 39.7144992,23.4933443 L39.7144992,23.4933443 Z M40.2848943,24.9732131 C40.5726344,24.9732131 40.7904525,25.09 40.7904525,25.3278361 C40.7904525,25.598918 40.5675492,25.7613115 40.1738664,25.7613115 C39.8166279,25.7613115 39.5657557,25.5754754 39.5657557,25.2907541 C39.5657557,25.173541 39.6263549,25.09 39.7047525,25.0294754 C39.7606902,24.9868525 39.8581574,24.9732131 40.0204615,24.9732131 L40.2848943,24.9732131 L40.2848943,24.9732131 Z M41.1387918,23.2512459 C41.1756598,23.2418689 41.2129516,23.1860328 41.2129516,23.0922623 C41.2129516,23.0551803 41.1943057,23.0227869 41.1756598,23.0082951 L40.7213779,23.0082951 C40.6658639,23.0082951 40.6150115,22.9857049 40.5166967,22.9388197 C40.3963459,22.8774426 40.2331943,22.8407869 40.0484303,22.8407869 C39.5466861,22.8407869 39.1991943,23.1579016 39.1991943,23.5781639 C39.1991943,23.8812131 39.384382,24.0679016 39.5428721,24.1331148 C39.5610943,24.1420656 39.5610943,24.1701967 39.5610943,24.1842623 C39.5610943,24.2507541 39.3335295,24.3943934 39.2640311,24.4314754 C39.2085172,24.4638689 39.1898713,24.5018033 39.1898713,24.5486885 C39.1898713,24.7302623 39.3335295,24.8798689 39.4954098,24.9361311 C39.5386344,24.9501967 39.5064279,25.0107213 39.4687123,25.038 C39.3983664,25.0989508 39.2229254,25.2016721 39.1805484,25.2481311 C39.1254582,25.3188852 39.1161352,25.3798361 39.1161352,25.4488852 C39.1161352,25.6918361 39.3292918,25.9995738 39.984441,25.9995738 C40.3823615,25.9995738 40.6794246,25.8601967 40.883682,25.6918361 C41.0082705,25.593377 41.1756598,25.3653443 41.1756598,25.1223934 C41.1756598,24.6139016 40.7535844,24.5572131 40.420077,24.5572131 C40.2204811,24.5572131 40.0437689,24.5674426 39.9094336,24.5674426 C39.7191607,24.5674426 39.6539,24.4783607 39.6539,24.3854426 C39.6539,24.3019016 39.7233984,24.2409508 39.797982,24.2025902 C39.8581574,24.2128197 39.9183328,24.2213443 39.9742705,24.2213443 C40.5637352,24.2213443 40.8235066,23.8437049 40.8235066,23.4515738 C40.8235066,23.3488525 40.8133361,23.2977049 40.800623,23.2512459 L41.1387918,23.2512459 L41.1387918,23.2512459 Z" id="Fill-18" fill="#D82738" mask="url(#mask-2)"></path>
                </g>
                <path d="M41.8426746,23.7874426 C41.8426746,23.2704262 42.0287098,23.026623 42.2651738,23.026623 C42.6084279,23.026623 42.7431869,23.489082 42.7431869,23.8812131 C42.7431869,24.2409508 42.6508049,24.6232787 42.3300107,24.6232787 C41.9960795,24.6232787 41.8426746,24.2128197 41.8426746,23.7874426 M42.3117885,22.8407869 C41.7685148,22.8407869 41.2951631,23.2320656 41.2951631,23.8577705 C41.2951631,24.4694098 41.7405459,24.8099672 42.274073,24.8099672 C42.8262459,24.8099672 43.2902746,24.4642951 43.2902746,23.8023607 C43.2902746,23.1949836 42.8364164,22.8407869 42.3117885,22.8407869" id="Fill-20" fill="#D82738"></path>
                <path d="M45.0891803,23.4238689 C45.2332623,23.1063279 45.298523,23.073082 45.4379434,23.045377 L45.5307492,23.026623 C45.5671934,22.9942295 45.5629557,22.9098361 45.5210025,22.8915082 C45.4192975,22.9017377 45.3031844,22.9051475 45.1824098,22.9051475 C45.0484984,22.9051475 44.9319615,22.9017377 44.7933885,22.8915082 C44.7416885,22.9098361 44.737027,22.9899672 44.7743189,23.026623 L44.8857705,23.0504918 C44.9412844,23.0602951 44.9828139,23.078623 44.9828139,23.1118689 C44.9828139,23.1438361 44.964168,23.2043607 44.917977,23.3207213 C44.7972025,23.6148197 44.6857508,23.8999672 44.574723,24.1326885 C44.5048008,23.9933115 44.2687607,23.4144918 44.2035,23.2414426 C44.1755311,23.1719672 44.166632,23.1203934 44.166632,23.0931148 C44.166632,23.0645574 44.2174844,23.0547541 44.2831689,23.041541 L44.3658041,23.026623 C44.4077574,22.9942295 44.4035197,22.9098361 44.3569049,22.8915082 C44.194177,22.9017377 44.0551803,22.9051475 43.8462615,22.9051475 C43.6843811,22.9051475 43.5216533,22.9017377 43.3593492,22.8915082 C43.3216336,22.9158033 43.3178197,22.9942295 43.3500262,23.026623 L43.4381705,23.045377 C43.5771672,23.078623 43.6280197,23.134459 43.7212492,23.3347869 C43.8093934,23.5308525 44.0645033,24.1194754 44.166632,24.3479344 C44.2221459,24.4685574 44.2963057,24.6518361 44.3433443,24.7818361 C44.3658041,24.8005902 44.393773,24.8099672 44.426827,24.8099672 C44.4586098,24.8099672 44.4870025,24.8005902 44.5048008,24.7818361 C44.5607385,24.6237049 44.6488828,24.4037705 44.7226189,24.2362623 L45.0891803,23.4238689" id="Fill-21" fill="#D82738"></path>
                <path d="M1.56371311,5.57039344 L3.3160041,4.33688525 L5.02464672,5.63134426 L4.39916148,3.57393443 L6.15145246,2.34 L4.01268279,2.30206557 L3.38677377,0.245081967 L2.69051885,2.27947541 L0.55132541,2.24196721 L2.25996803,3.53685246 L1.56371311,5.57039344" id="Fill-22" fill="#D82637"></path>
                <path d="M7.36343607,5.57039344 L9.11615082,4.33688525 L10.8243697,5.63134426 L10.1984607,3.57393443 L11.9515992,2.34 L9.81240574,2.30206557 L9.18692049,0.245081967 L8.49066557,2.27947541 L6.35147213,2.24196721 L8.06011475,3.53685246 L7.36343607,5.57039344" id="Fill-23" fill="#D82637"></path>
                <path d="M13.1635828,5.57039344 L14.91545,4.33688525 L16.6245164,5.63134426 L15.9994549,3.57393443 L17.7513221,2.34 L15.6125525,2.30206557 L14.9866434,0.245081967 L14.2903885,2.27947541 L12.1507713,2.24196721 L13.8598377,3.53685246 L13.1635828,5.57039344" id="Fill-24" fill="#D82637"></path>
                <path d="M18.9637295,5.57039344 L20.7160205,4.33688525 L22.4242393,5.63134426 L21.7983303,3.57393443 L23.5514689,2.34 L21.4122754,2.30206557 L20.7872139,0.245081967 L20.0901115,2.27947541 L17.950918,2.24196721 L19.6599844,3.53685246 L18.9637295,5.57039344" id="Fill-25" fill="#D82637"></path>
                <path d="M24.7630287,5.57039344 L26.5153197,4.33688525 L28.2248098,5.63134426 L27.598477,3.57393443 L29.3511918,2.34 L27.2119984,2.30206557 L26.5869369,0.245081967 L25.8911057,2.27947541 L23.7510648,2.24196721 L25.4592836,3.53685246 L24.7630287,5.57039344" id="Fill-26" fill="#D82637"></path>
            </g>
        </g>
    </g>
</svg>